<svg xmlns="http://www.w3.org/2000/svg" width="512" height="512" style="" viewBox="0 0 512 512" data-svgdocument="" id="_i1F_sGx9qBzGXqfjW2_Mq" class="fl-svgdocument" x="0" y="0" xmlns:xlink="http://www.w3.org/1999/xlink"><defs id="_vcQO254sQXtXnhn2MdVKB" transform="matrix(0.6131044481192232, 0, 0, 0.6131044481192232, -80.52529603288946, 77.6774312552258)"/><path id="_oFEVjJ1JECzbmvVFO4-31" d="M93.664,74.131c-3.75-2.837-10.482-4.896-15.416-12.658c-1.159-2.101-2.729-4.201-4.666-6.139 c-1.882-1.881-3.913-3.413-5.951-4.557l10.35-10.35c3.09,1.232,6.26,1.532,9.021,0.827c2.465-0.576,4.832-1.869,6.944-3.978 c4.646-4.649,6.072-11.297,4.283-17.175l-9.229,9.23l-9.007-2.417l-2.413-9l9.229-9.23C80.932,6.893,74.284,8.32,69.633,12.97 c-2.083,2.084-3.367,4.419-3.951,6.851c-0.738,2.781-0.447,5.983,0.803,9.109L53.41,42.005L36.53,25.128 c0.438-0.441,0.438-1.155-0.004-1.597c-2.656-2.991-3.803-6.425-0.418-9.81c3.061-3.061,8.744-3.973,12.668-3.028 c0.381,0.118,0.787-0.089,0.908-0.475c0.122-0.381-0.089-0.787-0.47-0.908H49.21c-7.402-2.918-15.81-2.542-22.961,1.124 l-0.365,0.364c-0.324-0.284-0.819-0.279-1.127,0.033L14.485,21.104c-0.312,0.312-0.32,0.803-0.037,1.126l-0.316,0.321 c-0.389,0.754-0.742,1.524-1.054,2.311c-0.503,1.463-1.338,2.842-2.505,4.009c-0.689,0.693-1.451,1.265-2.263,1.723 c-0.628-0.604-1.625-0.596-2.246,0.021l-4.232,4.232c-0.624,0.628-0.624,1.646,0,2.274l6.004,6c0.628,0.628,1.646,0.628,2.274,0 l4.228-4.229c0.628-0.628,0.628-1.646,0-2.274l-0.065-0.065c0.454-0.811,1.026-1.573,1.715-2.262 c1.111-1.111,6.057-5.841,11.322-1.544c0.446,0.442,1.159,0.442,1.605,0v-0.004l16.88,16.88L20.558,74.861 c-3.179,3.175-3.179,8.322,0,11.492c3.174,3.179,8.318,3.179,11.492,0l22.515-22.512c1.147,2.039,2.677,4.07,4.559,5.951 c1.938,1.938,4.037,3.506,6.139,4.666c7.762,4.934,9.82,11.663,12.659,15.417l0.786,0.782c2.205,2.205,5.68,2.306,7.759,0.223 l8.205-8.205c2.084-2.078,1.981-5.557-0.223-7.759L93.664,74.131z M26.912,83.703c-1.36,0.509-2.884-0.18-3.394-1.555 c-0.517-1.362,0.181-2.879,1.549-3.396c1.368-0.516,2.884,0.18,3.393,1.549C28.978,81.67,28.28,83.188,26.912,83.703z M53.738,47.942c-0.571,0.571-1.496,0.571-2.067,0L34.369,30.64c-0.571-0.572-0.571-1.496,0-2.067c0.572-0.572,1.5-0.572,2.072,0 l17.297,17.302C54.312,46.446,54.312,47.37,53.738,47.942z M58.902,49.393l-3.161,3.158c-0.337,0.338-0.88,0.338-1.212,0 c-0.338-0.336-0.338-0.875,0-1.212l3.156-3.162c0.338-0.336,0.881-0.336,1.217,0C59.234,48.513,59.234,49.057,58.902,49.393z M90.389,81.966l-2.603,2.606c-0.085,0.08-0.216,0.08-0.296,0c-0.053-0.053-0.069-0.125-0.053-0.19l-0.004-0.004 c0.39-1.423-0.224-3.305-1.688-4.771l-0.686-0.683c-3.174-2.582-8.545-4.889-13.162-11.358c-1.115-1.734-2.543-3.506-4.236-5.2 c-2.605-2.606-5.404-4.584-7.945-5.761c-0.076-0.041-0.15-0.094-0.215-0.158c-0.373-0.369-0.373-0.969,0-1.338 c0-0.008,0.012-0.008,0.016-0.017l2.049-2.047h0.004c0.385-0.377,0.957-0.442,1.41-0.198c2.636,1.15,5.578,3.189,8.312,5.922 c1.688,1.69,3.117,3.467,4.235,5.201c4.613,6.471,9.984,8.776,13.162,11.358l0.774,0.589C92.314,77.943,92.408,79.951,90.389,81.966 z" stroke="none" fill="#000000" transform="matrix(1.236290306598602, 0, 0, 1.236290306598602, 189.60919019757696, 147.73021612126263)"/><path text="HANDYMAN" text-anchor="middle" font-size="100" letter-spacing="0" side="left" offset="0.5" dx="0" dy="0" space="preserve" href="" font-family="Fjalla One" font-scale="contain" transform="matrix(1.0050384309663736, 0, 0, 1.0050384309663736, 255.9996472796034, 395.8336034914745)" x="0" y="0" fill="#000000" data-fl-textpath="" id="_mpC6s2zALGCw2IoxQMmgQ" d="M-206.9569140625 0L-206.9569140625-83.4L-194.3069140625-83.4L-194.3069140625-48.49L-179.3169140625-48.49L-179.3169140625-83.4L-166.6769140625-83.4L-166.6769140625 0L-179.3169140625 0L-179.3169140625-38.53L-194.3069140625-38.53L-194.3069140625 0L-206.9569140625 0ZM-158.5182421875 0L-143.1382421875-83.4L-128.5882421875-83.4L-113.15824218750001 0L-125.9482421875 0L-128.2482421875-14.94L-143.4782421875-14.94L-145.6782421875 0L-158.5182421875 0ZM-142.0182421875-24.46L-129.7082421875-24.46L-135.5682421875-66.02L-136.1082421875-66.02L-142.0182421875-24.46ZM-105.1014453125 0L-105.1014453125-83.4L-94.8514453125-83.4L-74.6314453125-27.59L-74.3414453125-27.59Q-74.49144531249999-29.54 -74.7314453125-31.93Q-74.97144531250001-34.33 -75.1714453125-37.38Q-75.3614453125-40.43 -75.5114453125-44.29Q-75.6614453125-48.14 -75.6614453125-52.98L-75.6614453125-52.98L-75.6614453125-83.4L-64.3314453125-83.4L-64.3314453125 0L-74.6814453125 0L-94.8014453125-54.35L-95.19144531250001-54.35Q-95.0414453125-52.15 -94.8014453125-49.58Q-94.5514453125-47.02 -94.3614453125-43.55Q-94.1614453125-40.09 -94.02144531249999-35.47Q-93.8714453125-30.86 -93.8714453125-24.51L-93.8714453125-24.51L-93.8714453125 0L-105.1014453125 0ZM-50.0721484375 0L-50.0721484375-83.4L-36.942148437499995-83.4Q-33.962148437500005-83.4 -30.7621484375-83.23Q-27.5621484375-83.06 -24.512148437500002-82.18Q-21.462148437499998-81.3 -18.752148437499997-79.47Q-16.042148437500003-77.64 -13.9921484375-74.34Q-11.942148437500002-71.04 -10.7421484375-66.04Q-9.542148437500003-61.04 -9.542148437500003-53.81L-9.542148437500003-53.81L-9.542148437500003-29.59Q-9.542148437500003-22.36 -10.7421484375-17.33Q-11.942148437500002-12.3 -13.9921484375-9.03Q-16.042148437500003-5.76 -18.752148437499997-3.93Q-21.462148437499998-2.1 -24.512148437500002-1.22Q-27.5621484375-0.34 -30.7621484375-0.17Q-33.962148437500005 0 -36.942148437499995 0L-36.942148437499995 0L-50.0721484375 0ZM-37.4221484375-8.84L-34.2021484375-8.84Q-30.7821484375-8.84 -28.5621484375-9.72Q-26.3421484375-10.6 -25.0521484375-12.82Q-23.752148437499997-15.04 -23.262148437500002-18.87Q-22.7821484375-22.71 -22.7821484375-28.56L-22.7821484375-28.56L-22.7821484375-54.44Q-22.7821484375-60.3 -23.262148437500002-64.14Q-23.752148437499997-67.97 -25.0521484375-70.19Q-26.3421484375-72.41 -28.5621484375-73.29Q-30.7821484375-74.17 -34.2021484375-74.17L-34.2021484375-74.17L-37.4221484375-74.17L-37.4221484375-8.84ZM 11.6444921875 0L 11.6444921875-27.78L-5.1555078125-83.4L 7.5944921875-83.4L 17.7944921875-43.51L 18.3844921875-43.51L 28.4944921875-83.4L 41.1844921875-83.4L 24.2944921875-27.78L 24.2944921875 0L 11.6444921875 0ZM 48.5606640625 0L 48.5606640625-83.4L 65.0606640625-83.4L 73.0706640625-51.12Q 74.3406640625-45.75  75.0706640625-40.89Q 75.8106640625-36.04  76.4906640625-31.74L 76.4906640625-31.74L 76.8806640625-31.74Q 77.5606640625-36.04  78.3006640625-40.89Q 79.0306640625-45.75  80.3006640625-51.12L 80.3006640625-51.12L 88.5506640625-83.4L 104.7106640625-83.4L 104.7106640625 0L 92.89066406250001 0L 92.89066406250001-27.59Q 92.89066406250001-33.94  93.0206640625-39.79Q 93.14066406250001-45.65  93.3306640625-50.56Q 93.5306640625-55.47  93.7706640625-59.23Q 94.0206640625-62.99  94.2106640625-65.19L 94.2106640625-65.19L 93.2906640625-65.19L 80.69066406249999-10.74L 72.6806640625-10.74L 59.9806640625-65.19L 59.060664062499995-65.19Q 59.2506640625-62.99  59.5006640625-59.23Q 59.7406640625-55.47  59.940664062500005-50.56Q 60.1306640625-45.65  60.2506640625-39.79Q 60.3806640625-33.94  60.3806640625-27.59L 60.3806640625-27.59L 60.3806640625 0L 48.5606640625 0ZM 112.7708203125 0L 128.1508203125-83.4L 142.7008203125-83.4L 158.1308203125 0L 145.3408203125 0L 143.0408203125-14.94L 127.8108203125-14.94L 125.6108203125 0L 112.7708203125 0ZM 129.2708203125-24.46L 141.5808203125-24.46L 135.7208203125-66.02L 135.1808203125-66.02L 129.2708203125-24.46ZM 166.1876171875 0L 166.1876171875-83.4L 176.4376171875-83.4L 196.6576171875-27.59L 196.9476171875-27.59Q 196.7976171875-29.54  196.5576171875-31.93Q 196.3176171875-34.33  196.1176171875-37.38Q 195.9276171875-40.43  195.7776171875-44.29Q 195.6276171875-48.14  195.6276171875-52.98L 195.6276171875-52.98L 195.6276171875-83.4L 206.9576171875-83.4L 206.9576171875 0L 196.6076171875 0L 176.4876171875-54.35L 176.0976171875-54.35Q 176.2476171875-52.15  176.4876171875-49.58Q 176.7376171875-47.02  176.9276171875-43.55Q 177.1276171875-40.09  177.2676171875-35.47Q 177.4176171875-30.86  177.4176171875-24.51L 177.4176171875-24.51L 177.4176171875 0L 166.1876171875 0Z"/><g id="_ezzdyi_nYvTlF46Boleuc" transform="matrix(0.8732858281545289, 0, 0, 0.8732858281545289, 17.695420344937226, 21.977403324400782)"><path id="_Bqa23A69ZHvDZU-3hDC70" d="M40,68.5c-15.7,0-28.5-12.8-28.5-28.5S24.3,11.5,40,11.5S68.5,24.3,68.5,40S55.7,68.5,40,68.5z M40,13.5   c-14.6,0-26.5,11.9-26.5,26.5S25.4,66.5,40,66.5S66.5,54.6,66.5,40S54.6,13.5,40,13.5z" stroke="none" fill="#000000" transform="matrix(3.5520920753479004, 0, 0, 3.5520920753479004, 130.79925537109375, 69.85905456542969)"/><path id="_MDja4-py6DkvRqCw-xN5J" d="M40,68.5c-15.7,0-28.5-12.8-28.5-28.5S24.3,11.5,40,11.5S68.5,24.3,68.5,40S55.7,68.5,40,68.5z M40,13.5   c-14.6,0-26.5,11.9-26.5,26.5S25.4,66.5,40,66.5S66.5,54.6,66.5,40S54.6,13.5,40,13.5z" stroke="none" fill="#000000" transform="matrix(3.6521620750427246, 0, 0, 3.6521620750427246, 126.79619598388672, 65.85599517822266)"/></g></svg>